<svg width="512" height="512" viewBox="0 0 512 512" fill="none" xmlns="http://www.w3.org/2000/svg">
<g clip-path="url(#clip0_36_18)">
<path d="M0 0H512V512H0V0Z" fill="#004B71"/>
<path d="M87.3727 304.374C97.8515 303.425 102.827 308.825 110.494 314.812L122.358 323.887L168.2 358.93C171.475 361.445 183.32 371.081 186.115 371.353C196.751 372.387 214.754 371.714 225.234 371.654L262.162 371.448C269.047 371.398 276.239 371.474 283.083 371.07C294.485 370.803 296.475 360.199 284.239 359.188C278.02 358.674 270.168 359.243 263.838 359.26L223.175 359.303C210.542 359.303 181.544 363.113 182.49 341.472C182.831 333.668 194.731 324.921 201.945 324.225C207.792 323.66 215.422 324.067 221.455 323.846C241.809 322.946 262.931 325.077 282.992 321.295C293.822 319.296 305.949 317.589 316.884 318.788C324.678 319.641 332.94 322.345 340.426 324.758C376.386 337.563 401.209 357.849 424.319 387.725C439.196 407.775 450.606 432.056 454.565 456.895C455.74 464.263 456.144 471.569 456.655 479C445.476 460.888 433.199 447.32 414.574 436.614C397.063 426.548 375.283 419.54 355.173 418.072C335.367 416.626 313.413 421.175 294.71 427.34C282.01 431.526 269.621 438.266 256.718 441.992C242.706 446.142 222.154 443.367 209.908 435.41C203.998 431.57 194.751 424 188.633 419.408L137.002 380.163L95.9936 348.963C90.4869 344.782 84.8424 340.715 79.3696 336.525C74.1269 332.513 70.7443 325.519 72.2152 318.809C74.0561 310.411 79.3291 306.07 87.3727 304.374Z" fill="#FEFEFE"/>
<path d="M354.392 33.8769C365.309 31.5615 377.069 40.2331 379.32 51.1484C380.511 56.9738 379.365 63.0404 376.135 68.0094C372.307 73.828 365.066 78.9926 359.906 83.754C356.354 87.0304 352.775 90.8263 349.18 93.9518C348.61 94.4536 347.949 94.8396 347.235 95.089C336.6 105.6 325.986 117.13 315.421 127.881L224.416 220.993C211.052 234.565 197.827 248.278 184.745 262.128C181.578 265.462 171.252 275.83 169.084 278.955C167.808 286.221 162.572 293.614 156.707 297.94C151.305 301.925 141.865 303.826 135.441 301.786C130.237 301.12 124.906 298.971 120.933 295.46C116.525 291.641 113.821 286.185 113.433 280.324C112.651 267.62 121.493 260.938 129.43 252.94L152.734 229.411L250.638 130.328L313.503 65.3774L329.77 48.3187C338.187 39.5081 341.632 34.5608 354.392 33.8769Z" fill="#FEFEFE"/>
<path d="M202.621 87.5582L250.67 87.4373C261.673 87.4784 273.366 87.7606 284.311 87.4761C269.071 103.567 253.645 119.475 238.033 135.195C224.644 134.385 210.463 134.755 196.971 134.78L135.763 134.747L98.4198 134.77C91.3604 134.781 78.8394 135.498 72.2165 133.875C55.2969 129.727 47.501 108.19 60.5285 94.7888C63.9583 91.2362 68.4151 88.8813 73.2538 88.063C77.4651 87.3335 84.158 87.5911 88.6016 87.6053L112.313 87.6672L202.621 87.5582Z" fill="#FEFEFE"/>
<path d="M404.651 139.071C408.456 138.515 413.513 141.057 416.51 143.087C420.251 145.62 424.912 152.825 425.16 157.211C425.573 164.512 422.37 175.383 420.835 182.892C417.274 200.315 412.962 217.637 409.175 235.022L403.113 263.332C401.867 269.279 400.759 275.06 399.172 280.941C395.426 294.821 380.667 305.247 366.327 301.361C361.228 300.634 356.473 298.342 352.701 294.794C341.514 284.118 345.865 270.049 348.842 257.057C350.589 249.58 352.258 242.085 353.848 234.572C357.801 215.416 361.919 196.295 366.204 177.212C369.824 160.646 369.875 137.999 391.997 138.935C396.163 139.112 400.475 139.1 404.651 139.071Z" fill="#FEFEFE"/>
<path d="M315.039 139.331L339.603 139.243C343.789 139.228 350.154 139.037 354.155 139.568C357.133 139.764 360.832 140.5 360.317 144.529C359.437 151.42 358.08 158.289 356.987 165.158C353.974 184.138 350.719 203.078 347.223 221.973L340.916 259.288C338.853 270.953 336.386 290.112 326.99 297.924C322.478 301.618 316.666 303.271 310.916 302.497C310.289 302.408 309.785 302.258 309.178 302.086C297.51 301.096 289.152 291.471 288.793 279.96C288.613 274.191 290.257 265.135 291.024 259.289C292.466 248.619 293.742 237.927 294.851 227.216C296.468 211.147 297.898 195.06 299.14 178.957C299.827 170.318 300.327 161.233 301.356 152.666C304.172 149.208 311.615 142.107 315.039 139.331Z" fill="#FEFEFE"/>
<path d="M110.8 262.833C109.733 259.056 108.627 253.217 107.749 249.27L101.053 218.403L93.4013 183.779C91.637 175.755 88.6732 165.304 88.8627 157.374C88.9696 152.927 92.6338 146.805 96.0732 143.994C103.237 138.139 109.169 137.209 117.903 137.82C126.814 137.69 139.464 144.16 141.796 152.893C147.34 173.664 150.648 196.11 155.83 217.016C154.924 217.961 152.623 220.479 151.697 221.152C149.989 223.843 143.255 230.365 140.714 232.911C131.096 242.548 120.777 253.715 110.8 262.833Z" fill="#FEFEFE"/>
<path d="M365.839 87.4776C386.337 87.1043 412.256 87.0318 432.599 87.7143C437.052 86.6787 443.969 88.723 447.827 91.1937C458.5 98.0285 461.766 113.486 454.887 124.225C451.5 129.557 446.126 133.272 439.989 134.525C437.831 134.983 434.542 135.325 432.477 134.597C428.234 134.888 422.176 134.727 417.838 134.732L391.922 134.727L320.555 134.774C323.621 130.484 334.551 119.518 338.751 115.33C347.448 106.656 357.038 95.6624 365.839 87.4776Z" fill="#FEFEFE"/>
<path d="M282.955 171.611L283.892 170.18L284.343 170.166C285.455 173.197 281.892 263.87 281.245 274.289C281.043 277.55 279.84 281.841 278.352 284.998C275.029 292.046 269.811 298.394 262.431 301.259C259.357 302.453 254.92 302.842 251.718 301.983C245.868 301.22 240.896 299.262 236.658 295.013C228.415 286.747 229.693 276.14 229.476 265.482C229.096 252.495 229.017 239.502 229.24 226.512C242.697 211.647 257.685 197.558 271.479 182.973C275.03 179.218 279.111 174.97 282.955 171.611Z" fill="#FEFEFE"/>
<path d="M163.78 209.809C159.762 188.955 158.787 165.696 155.351 144.6C154.815 141.308 157.575 139.141 160.749 139.204C174.431 139.472 189.003 138.446 202.584 139.324C207.074 139.6 208.627 139.535 212.17 142.531C212.768 148.321 213.337 154.113 213.876 159.91C212.24 161.503 209.189 164.661 207.531 165.984C192.735 180.374 178.15 194.984 163.78 209.809Z" fill="#FEFEFE"/>
<path d="M220.603 237.588C220.147 245.195 220.089 251.204 220.039 258.657C219.993 265.536 220.654 279.805 218.933 285.619C217.657 289.887 215.237 293.712 211.942 296.67C208.162 300.073 198.602 303.752 193.833 301.003C188.246 300.177 184.38 298.202 180.395 294.188C177.536 291.309 172.801 283.763 176.222 280.012C179.796 276.093 184.077 272.163 187.922 268.434C196.963 259.543 206.17 250.829 215.54 242.295C217.527 240.117 218.29 239.407 220.603 237.588Z" fill="#FEFEFE"/>
</g>
<defs>
<clipPath id="clip0_36_18">
<rect width="512" height="512" fill="white"/>
</clipPath>
</defs>
</svg>
