<svg width="512" height="512" viewBox="0 0 512 512" fill="none" xmlns="http://www.w3.org/2000/svg">
<path d="M0 0H512V512H0V0Z" fill="white"/>
<path d="M77.0355 122.452L154.971 122.374C170.397 122.38 255.576 121.923 270.852 122.374V163.227L143.155 163.227L143.188 232.309C157.878 232.24 172.569 232.228 187.258 232.276C187.88 245.646 187.55 260.062 187.526 273.498L143.693 273.353C142.116 287.724 143.229 310.058 143.244 325.005L143.142 389.263L77 389.215L77.0355 122.452Z" fill="black"/>
<path d="M365.531 122.112C399.511 122.112 363.502 122.112 422.841 122.112L335.137 248.607L243.811 387.625L183.367 387.625L365.531 122.112Z" fill="black"/>
<path d="M344.367 387.803L231.261 232.386C231.261 232.386 230.616 232.257 230.758 232.397C230.67 233.71 230.112 239.783 230.419 272.408L315.226 388.244L344.367 387.803Z" fill="black"/>
</svg>
