<svg width="512" height="512" viewBox="0 0 512 512" fill="none" xmlns="http://www.w3.org/2000/svg">
<path d="M94.0355 122.452L171.971 122.374C187.397 122.38 272.576 121.923 287.852 122.374V163.227L160.155 163.227L160.188 232.309C174.878 232.24 189.569 232.228 204.258 232.276C204.88 245.646 204.55 260.062 204.526 273.498L160.693 273.353C159.116 287.724 160.229 310.058 160.244 325.005L160.142 389.263L94 389.215L94.0355 122.452Z" fill="black"/>
<path d="M350.119 122.112C384.1 122.112 348.091 122.112 407.429 122.112L319.725 248.607L228.399 387.625L167.956 387.625L350.119 122.112Z" fill="black"/>
<path d="M328.955 387.803L215.849 232.386C215.849 232.386 215.205 232.257 215.347 232.397C215.259 233.71 214.701 239.783 215.007 272.408L299.814 388.244L328.955 387.803Z" fill="black"/>
</svg>
